<?xml version="1.0" encoding="UTF-8" standalone="no"?>
<!DOCTYPE svg PUBLIC "-//W3C//DTD SVG 1.1//EN"
 "http://www.w3.org/Graphics/SVG/1.1/DTD/svg11.dtd">
<!-- Generated by graphviz version 2.47.3 (20210619.1520)
 -->
<!-- Title: dependencies Pages: 1 -->
<svg width="788pt" height="247pt"
 viewBox="0.00 0.00 788.00 246.80" xmlns="http://www.w3.org/2000/svg" xmlns:xlink="http://www.w3.org/1999/xlink">
<g id="graph0" class="graph" transform="scale(1 1) rotate(0) translate(4 242.8)">
<title>dependencies</title>
<polygon fill="white" stroke="transparent" points="-4,4 -4,-242.8 784,-242.8 784,4 -4,4"/>
<text text-anchor="middle" x="390" y="-8.2" font-family="sans-serif" font-size="14.00">dependencies</text>
<g id="clust1" class="cluster">
<title>cluster_SharedModule</title>
<polygon fill="none" stroke="black" stroke-dasharray="1,5" points="8,-32.8 8,-230.8 772,-230.8 772,-32.8 8,-32.8"/>
</g>
<g id="clust9" class="cluster">
<title>cluster_SharedModule_exports</title>
<polygon fill="none" stroke="black" points="86,-170.8 86,-222.8 663,-222.8 663,-170.8 86,-170.8"/>
</g>
<g id="clust2" class="cluster">
<title>cluster_SharedModule_declarations</title>
<polygon fill="none" stroke="black" points="16,-40.8 16,-92.8 764,-92.8 764,-40.8 16,-40.8"/>
</g>
<!-- ConfirmDialogComponent -->
<g id="node1" class="node">
<title>ConfirmDialogComponent</title>
<polygon fill="#ffffb3" stroke="black" points="756.37,-84.8 589.63,-84.8 589.63,-48.8 756.37,-48.8 756.37,-84.8"/>
<text text-anchor="middle" x="673" y="-62.6" font-family="Times,serif" font-size="14.00">ConfirmDialogComponent</text>
</g>
<!-- SharedModule -->
<g id="node6" class="node">
<title>SharedModule</title>
<polygon fill="#8dd3c7" stroke="black" points="406.42,-149.8 403.42,-153.8 382.42,-153.8 379.42,-149.8 307.58,-149.8 307.58,-113.8 406.42,-113.8 406.42,-149.8"/>
<text text-anchor="middle" x="357" y="-127.6" font-family="Times,serif" font-size="14.00">SharedModule</text>
</g>
<!-- ConfirmDialogComponent&#45;&gt;SharedModule -->
<g id="edge1" class="edge">
<title>ConfirmDialogComponent&#45;&gt;SharedModule</title>
<path fill="none" stroke="black" d="M622.43,-84.91C622.43,-104.14 622.43,-131.8 622.43,-131.8 622.43,-131.8 416.3,-131.8 416.3,-131.8"/>
<polygon fill="black" stroke="black" points="416.3,-128.3 406.3,-131.8 416.3,-135.3 416.3,-128.3"/>
</g>
<!-- EditUserComponent -->
<g id="node2" class="node">
<title>EditUserComponent</title>
<polygon fill="#ffffb3" stroke="black" points="571.59,-84.8 440.41,-84.8 440.41,-48.8 571.59,-48.8 571.59,-84.8"/>
<text text-anchor="middle" x="506" y="-62.6" font-family="Times,serif" font-size="14.00">EditUserComponent</text>
</g>
<!-- EditUserComponent&#45;&gt;SharedModule -->
<g id="edge2" class="edge">
<title>EditUserComponent&#45;&gt;SharedModule</title>
<path fill="none" stroke="black" d="M471.68,-84.83C471.68,-101.2 471.68,-122.8 471.68,-122.8 471.68,-122.8 416.3,-122.8 416.3,-122.8"/>
<polygon fill="black" stroke="black" points="416.3,-119.3 406.3,-122.8 416.3,-126.3 416.3,-119.3"/>
</g>
<!-- PermissionDirective -->
<g id="node3" class="node">
<title>PermissionDirective</title>
<polygon fill="#ffffb3" stroke="black" points="422.3,-84.8 291.7,-84.8 291.7,-48.8 422.3,-48.8 422.3,-84.8"/>
<text text-anchor="middle" x="357" y="-62.6" font-family="Times,serif" font-size="14.00">PermissionDirective</text>
</g>
<!-- PermissionDirective&#45;&gt;SharedModule -->
<g id="edge3" class="edge">
<title>PermissionDirective&#45;&gt;SharedModule</title>
<path fill="none" stroke="black" d="M357,-84.91C357,-84.91 357,-103.79 357,-103.79"/>
<polygon fill="black" stroke="black" points="353.5,-103.79 357,-113.79 360.5,-103.79 353.5,-103.79"/>
</g>
<!-- SpecialityDirective -->
<g id="node4" class="node">
<title>SpecialityDirective</title>
<polygon fill="#ffffb3" stroke="black" points="274.07,-84.8 149.93,-84.8 149.93,-48.8 274.07,-48.8 274.07,-84.8"/>
<text text-anchor="middle" x="212" y="-62.6" font-family="Times,serif" font-size="14.00">SpecialityDirective</text>
</g>
<!-- SpecialityDirective&#45;&gt;SharedModule -->
<g id="edge4" class="edge">
<title>SpecialityDirective&#45;&gt;SharedModule</title>
<path fill="none" stroke="black" d="M248.62,-84.83C248.62,-101.2 248.62,-122.8 248.62,-122.8 248.62,-122.8 297.57,-122.8 297.57,-122.8"/>
<polygon fill="black" stroke="black" points="297.57,-126.3 307.57,-122.8 297.57,-119.3 297.57,-126.3"/>
</g>
<!-- TitleComponent -->
<g id="node5" class="node">
<title>TitleComponent</title>
<polygon fill="#ffffb3" stroke="black" points="131.77,-84.8 24.23,-84.8 24.23,-48.8 131.77,-48.8 131.77,-84.8"/>
<text text-anchor="middle" x="78" y="-62.6" font-family="Times,serif" font-size="14.00">TitleComponent</text>
</g>
<!-- TitleComponent&#45;&gt;SharedModule -->
<g id="edge5" class="edge">
<title>TitleComponent&#45;&gt;SharedModule</title>
<path fill="none" stroke="black" d="M113.12,-84.91C113.12,-104.14 113.12,-131.8 113.12,-131.8 113.12,-131.8 297.65,-131.8 297.65,-131.8"/>
<polygon fill="black" stroke="black" points="297.65,-135.3 307.65,-131.8 297.65,-128.3 297.65,-135.3"/>
</g>
<!-- EditUserComponent  -->
<g id="node7" class="node">
<title>EditUserComponent </title>
<polygon fill="#fb8072" stroke="black" points="655.09,-214.8 520.91,-214.8 520.91,-178.8 655.09,-178.8 655.09,-214.8"/>
<text text-anchor="middle" x="588" y="-192.6" font-family="Times,serif" font-size="14.00">EditUserComponent </text>
</g>
<!-- SharedModule&#45;&gt;EditUserComponent  -->
<g id="edge6" class="edge">
<title>SharedModule&#45;&gt;EditUserComponent </title>
<path fill="none" stroke="black" stroke-dasharray="5,2" d="M406.69,-140.8C462.72,-140.8 546.12,-140.8 546.12,-140.8 546.12,-140.8 546.12,-168.77 546.12,-168.77"/>
<polygon fill="black" stroke="black" points="542.63,-168.77 546.12,-178.77 549.63,-168.77 542.63,-168.77"/>
</g>
<!-- PermissionDirective  -->
<g id="node8" class="node">
<title>PermissionDirective </title>
<polygon fill="#fb8072" stroke="black" points="502.8,-214.8 369.2,-214.8 369.2,-178.8 502.8,-178.8 502.8,-214.8"/>
<text text-anchor="middle" x="436" y="-192.6" font-family="Times,serif" font-size="14.00">PermissionDirective </text>
</g>
<!-- SharedModule&#45;&gt;PermissionDirective  -->
<g id="edge7" class="edge">
<title>SharedModule&#45;&gt;PermissionDirective </title>
<path fill="none" stroke="black" stroke-dasharray="5,2" d="M387.66,-149.91C387.66,-149.91 387.66,-168.79 387.66,-168.79"/>
<polygon fill="black" stroke="black" points="384.16,-168.79 387.66,-178.79 391.16,-168.79 384.16,-168.79"/>
</g>
<!-- SpecialityDirective  -->
<g id="node9" class="node">
<title>SpecialityDirective </title>
<polygon fill="#fb8072" stroke="black" points="350.57,-214.8 223.43,-214.8 223.43,-178.8 350.57,-178.8 350.57,-214.8"/>
<text text-anchor="middle" x="287" y="-192.6" font-family="Times,serif" font-size="14.00">SpecialityDirective </text>
</g>
<!-- SharedModule&#45;&gt;SpecialityDirective  -->
<g id="edge8" class="edge">
<title>SharedModule&#45;&gt;SpecialityDirective </title>
<path fill="none" stroke="black" stroke-dasharray="5,2" d="M329.29,-149.91C329.29,-149.91 329.29,-168.79 329.29,-168.79"/>
<polygon fill="black" stroke="black" points="325.79,-168.79 329.29,-178.79 332.79,-168.79 325.79,-168.79"/>
</g>
<!-- TitleComponent  -->
<g id="node10" class="node">
<title>TitleComponent </title>
<polygon fill="#fb8072" stroke="black" points="205.77,-214.8 94.23,-214.8 94.23,-178.8 205.77,-178.8 205.77,-214.8"/>
<text text-anchor="middle" x="150" y="-192.6" font-family="Times,serif" font-size="14.00">TitleComponent </text>
</g>
<!-- SharedModule&#45;&gt;TitleComponent  -->
<g id="edge9" class="edge">
<title>SharedModule&#45;&gt;TitleComponent </title>
<path fill="none" stroke="black" stroke-dasharray="5,2" d="M307.56,-140.8C254.52,-140.8 177.8,-140.8 177.8,-140.8 177.8,-140.8 177.8,-168.77 177.8,-168.77"/>
<polygon fill="black" stroke="black" points="174.3,-168.77 177.8,-178.77 181.3,-168.77 174.3,-168.77"/>
</g>
</g>
</svg>
