<?xml version="1.0" encoding="UTF-8" standalone="no"?>
<!DOCTYPE svg PUBLIC "-//W3C//DTD SVG 1.1//EN"
 "http://www.w3.org/Graphics/SVG/1.1/DTD/svg11.dtd">
<!-- Generated by graphviz version 2.47.3 (20210619.1520)
 -->
<!-- Title: dependencies Pages: 1 -->
<svg width="555pt" height="247pt"
 viewBox="0.00 0.00 555.00 246.80" xmlns="http://www.w3.org/2000/svg" xmlns:xlink="http://www.w3.org/1999/xlink">
<g id="graph0" class="graph" transform="scale(1 1) rotate(0) translate(4 242.8)">
<title>dependencies</title>
<polygon fill="white" stroke="transparent" points="-4,4 -4,-242.8 551,-242.8 551,4 -4,4"/>
<text text-anchor="middle" x="273.5" y="-8.2" font-family="sans-serif" font-size="14.00">dependencies</text>
<g id="clust1" class="cluster">
<title>cluster_SchedulingModule</title>
<polygon fill="none" stroke="black" stroke-dasharray="1,5" points="8,-32.8 8,-230.8 539,-230.8 539,-32.8 8,-32.8"/>
</g>
<g id="clust2" class="cluster">
<title>cluster_SchedulingModule_declarations</title>
<polygon fill="none" stroke="black" points="138,-40.8 138,-92.8 531,-92.8 531,-40.8 138,-40.8"/>
</g>
<g id="clust5" class="cluster">
<title>cluster_SchedulingModule_imports</title>
<polygon fill="none" stroke="black" points="16,-40.8 16,-92.8 130,-92.8 130,-40.8 16,-40.8"/>
</g>
<g id="clust6" class="cluster">
<title>cluster_SchedulingModule_exports</title>
<polygon fill="none" stroke="black" points="137,-170.8 137,-222.8 293,-222.8 293,-170.8 137,-170.8"/>
</g>
<!-- CCRAppointmentDialogComponent -->
<g id="node1" class="node">
<title>CCRAppointmentDialogComponent</title>
<polygon fill="#ffffb3" stroke="black" points="522.83,-84.8 301.17,-84.8 301.17,-48.8 522.83,-48.8 522.83,-84.8"/>
<text text-anchor="middle" x="412" y="-62.6" font-family="Times,serif" font-size="14.00">CCRAppointmentDialogComponent</text>
</g>
<!-- SchedulingModule -->
<g id="node3" class="node">
<title>SchedulingModule</title>
<polygon fill="#8dd3c7" stroke="black" points="276.04,-149.8 273.04,-153.8 252.04,-153.8 249.04,-149.8 153.96,-149.8 153.96,-113.8 276.04,-113.8 276.04,-149.8"/>
<text text-anchor="middle" x="215" y="-127.6" font-family="Times,serif" font-size="14.00">SchedulingModule</text>
</g>
<!-- CCRAppointmentDialogComponent&#45;&gt;SchedulingModule -->
<g id="edge1" class="edge">
<title>CCRAppointmentDialogComponent&#45;&gt;SchedulingModule</title>
<path fill="none" stroke="black" d="M412,-84.91C412,-104.14 412,-131.8 412,-131.8 412,-131.8 286.25,-131.8 286.25,-131.8"/>
<polygon fill="black" stroke="black" points="286.25,-128.3 276.25,-131.8 286.25,-135.3 286.25,-128.3"/>
</g>
<!-- SchedulerComponent -->
<g id="node2" class="node">
<title>SchedulerComponent</title>
<polygon fill="#ffffb3" stroke="black" points="283.81,-84.8 146.19,-84.8 146.19,-48.8 283.81,-48.8 283.81,-84.8"/>
<text text-anchor="middle" x="215" y="-62.6" font-family="Times,serif" font-size="14.00">SchedulerComponent</text>
</g>
<!-- SchedulerComponent&#45;&gt;SchedulingModule -->
<g id="edge2" class="edge">
<title>SchedulerComponent&#45;&gt;SchedulingModule</title>
<path fill="none" stroke="black" d="M215,-84.91C215,-84.91 215,-103.79 215,-103.79"/>
<polygon fill="black" stroke="black" points="211.5,-103.79 215,-113.79 218.5,-103.79 211.5,-103.79"/>
</g>
<!-- SchedulerComponent  -->
<g id="node5" class="node">
<title>SchedulerComponent </title>
<polygon fill="#fb8072" stroke="black" points="285.31,-214.8 144.69,-214.8 144.69,-178.8 285.31,-178.8 285.31,-214.8"/>
<text text-anchor="middle" x="215" y="-192.6" font-family="Times,serif" font-size="14.00">SchedulerComponent </text>
</g>
<!-- SchedulingModule&#45;&gt;SchedulerComponent  -->
<g id="edge4" class="edge">
<title>SchedulingModule&#45;&gt;SchedulerComponent </title>
<path fill="none" stroke="black" stroke-dasharray="5,2" d="M215,-149.91C215,-149.91 215,-168.79 215,-168.79"/>
<polygon fill="black" stroke="black" points="211.5,-168.79 215,-178.79 218.5,-168.79 211.5,-168.79"/>
</g>
<!-- SharedModule -->
<g id="node4" class="node">
<title>SharedModule</title>
<polygon fill="#8dd3c7" stroke="black" points="122.42,-84.8 119.42,-88.8 98.42,-88.8 95.42,-84.8 23.58,-84.8 23.58,-48.8 122.42,-48.8 122.42,-84.8"/>
<text text-anchor="middle" x="73" y="-62.6" font-family="Times,serif" font-size="14.00">SharedModule</text>
</g>
<!-- SharedModule&#45;&gt;SchedulingModule -->
<g id="edge3" class="edge">
<title>SharedModule&#45;&gt;SchedulingModule</title>
<path fill="none" stroke="black" d="M73,-84.91C73,-104.14 73,-131.8 73,-131.8 73,-131.8 143.96,-131.8 143.96,-131.8"/>
<polygon fill="black" stroke="black" points="143.96,-135.3 153.96,-131.8 143.96,-128.3 143.96,-135.3"/>
</g>
</g>
</svg>
