<?xml version="1.0" encoding="UTF-8" standalone="no"?>
<!DOCTYPE svg PUBLIC "-//W3C//DTD SVG 1.1//EN"
 "http://www.w3.org/Graphics/SVG/1.1/DTD/svg11.dtd">
<!-- Generated by graphviz version 2.47.3 (20210619.1520)
 -->
<!-- Title: dependencies Pages: 1 -->
<svg width="1331pt" height="174pt"
 viewBox="0.00 0.00 1331.00 173.80" xmlns="http://www.w3.org/2000/svg" xmlns:xlink="http://www.w3.org/1999/xlink">
<g id="graph0" class="graph" transform="scale(1 1) rotate(0) translate(4 169.8)">
<title>dependencies</title>
<polygon fill="white" stroke="transparent" points="-4,4 -4,-169.8 1327,-169.8 1327,4 -4,4"/>
<text text-anchor="middle" x="661.5" y="-8.2" font-family="sans-serif" font-size="14.00">dependencies</text>
<g id="clust1" class="cluster">
<title>cluster_BronchopulmonaryModule</title>
<polygon fill="none" stroke="black" stroke-dasharray="1,5" points="8,-32.8 8,-157.8 1315,-157.8 1315,-32.8 8,-32.8"/>
</g>
<g id="clust2" class="cluster">
<title>cluster_BronchopulmonaryModule_declarations</title>
<polygon fill="none" stroke="black" points="626,-40.8 626,-92.8 1307,-92.8 1307,-40.8 626,-40.8"/>
</g>
<g id="clust7" class="cluster">
<title>cluster_BronchopulmonaryModule_imports</title>
<polygon fill="none" stroke="black" points="16,-40.8 16,-92.8 618,-92.8 618,-40.8 16,-40.8"/>
</g>
<!-- CBPMainComponent -->
<g id="node1" class="node">
<title>CBPMainComponent</title>
<polygon fill="#ffffb3" stroke="black" points="1298.84,-84.8 1161.16,-84.8 1161.16,-48.8 1298.84,-48.8 1298.84,-84.8"/>
<text text-anchor="middle" x="1230" y="-62.6" font-family="Times,serif" font-size="14.00">CBPMainComponent</text>
</g>
<!-- BronchopulmonaryModule -->
<g id="node5" class="node">
<title>BronchopulmonaryModule</title>
<polygon fill="#8dd3c7" stroke="black" points="692.42,-149.8 689.42,-153.8 668.42,-153.8 665.42,-149.8 523.58,-149.8 523.58,-113.8 692.42,-113.8 692.42,-149.8"/>
<text text-anchor="middle" x="608" y="-127.6" font-family="Times,serif" font-size="14.00">BronchopulmonaryModule</text>
</g>
<!-- CBPMainComponent&#45;&gt;BronchopulmonaryModule -->
<g id="edge1" class="edge">
<title>CBPMainComponent&#45;&gt;BronchopulmonaryModule</title>
<path fill="none" stroke="black" d="M1230,-85.09C1230,-107.01 1230,-140.8 1230,-140.8 1230,-140.8 702.21,-140.8 702.21,-140.8"/>
<polygon fill="black" stroke="black" points="702.21,-137.3 692.21,-140.8 702.21,-144.3 702.21,-137.3"/>
</g>
<!-- CBPPatientComponent -->
<g id="node2" class="node">
<title>CBPPatientComponent</title>
<polygon fill="#ffffb3" stroke="black" points="1143.17,-84.8 996.83,-84.8 996.83,-48.8 1143.17,-48.8 1143.17,-84.8"/>
<text text-anchor="middle" x="1070" y="-62.6" font-family="Times,serif" font-size="14.00">CBPPatientComponent</text>
</g>
<!-- CBPPatientComponent&#45;&gt;BronchopulmonaryModule -->
<g id="edge2" class="edge">
<title>CBPPatientComponent&#45;&gt;BronchopulmonaryModule</title>
<path fill="none" stroke="black" d="M1070,-84.91C1070,-104.14 1070,-131.8 1070,-131.8 1070,-131.8 702.47,-131.8 702.47,-131.8"/>
<polygon fill="black" stroke="black" points="702.47,-128.3 692.47,-131.8 702.47,-135.3 702.47,-128.3"/>
</g>
<!-- CBPPatientListComponent -->
<g id="node3" class="node">
<title>CBPPatientListComponent</title>
<polygon fill="#ffffb3" stroke="black" points="978.45,-84.8 809.55,-84.8 809.55,-48.8 978.45,-48.8 978.45,-84.8"/>
<text text-anchor="middle" x="894" y="-62.6" font-family="Times,serif" font-size="14.00">CBPPatientListComponent</text>
</g>
<!-- CBPPatientListComponent&#45;&gt;BronchopulmonaryModule -->
<g id="edge3" class="edge">
<title>CBPPatientListComponent&#45;&gt;BronchopulmonaryModule</title>
<path fill="none" stroke="black" d="M894,-84.83C894,-101.2 894,-122.8 894,-122.8 894,-122.8 702.26,-122.8 702.26,-122.8"/>
<polygon fill="black" stroke="black" points="702.26,-119.3 692.26,-122.8 702.26,-126.3 702.26,-119.3"/>
</g>
<!-- CBPTrackingComponent -->
<g id="node4" class="node">
<title>CBPTrackingComponent</title>
<polygon fill="#ffffb3" stroke="black" points="792.32,-84.8 633.68,-84.8 633.68,-48.8 792.32,-48.8 792.32,-84.8"/>
<text text-anchor="middle" x="713" y="-62.6" font-family="Times,serif" font-size="14.00">CBPTrackingComponent</text>
</g>
<!-- CBPTrackingComponent&#45;&gt;BronchopulmonaryModule -->
<g id="edge4" class="edge">
<title>CBPTrackingComponent&#45;&gt;BronchopulmonaryModule</title>
<path fill="none" stroke="black" d="M663.02,-84.91C663.02,-84.91 663.02,-103.79 663.02,-103.79"/>
<polygon fill="black" stroke="black" points="659.52,-103.79 663.02,-113.79 666.52,-103.79 659.52,-103.79"/>
</g>
<!-- BronchopulmonaryRoutingModule -->
<g id="node6" class="node">
<title>BronchopulmonaryRoutingModule</title>
<polygon fill="#8dd3c7" stroke="black" points="609.54,-84.8 606.54,-88.8 585.54,-88.8 582.54,-84.8 396.46,-84.8 396.46,-48.8 609.54,-48.8 609.54,-84.8"/>
<text text-anchor="middle" x="503" y="-62.6" font-family="Times,serif" font-size="14.00">BronchopulmonaryRoutingModule</text>
</g>
<!-- BronchopulmonaryRoutingModule&#45;&gt;BronchopulmonaryModule -->
<g id="edge5" class="edge">
<title>BronchopulmonaryRoutingModule&#45;&gt;BronchopulmonaryModule</title>
<path fill="none" stroke="black" d="M566.78,-84.91C566.78,-84.91 566.78,-103.79 566.78,-103.79"/>
<polygon fill="black" stroke="black" points="563.28,-103.79 566.78,-113.79 570.28,-103.79 563.28,-103.79"/>
</g>
<!-- PatientModule -->
<g id="node7" class="node">
<title>PatientModule</title>
<polygon fill="#8dd3c7" stroke="black" points="378.43,-84.8 375.43,-88.8 354.43,-88.8 351.43,-84.8 279.57,-84.8 279.57,-48.8 378.43,-48.8 378.43,-84.8"/>
<text text-anchor="middle" x="329" y="-62.6" font-family="Times,serif" font-size="14.00">PatientModule</text>
</g>
<!-- PatientModule&#45;&gt;BronchopulmonaryModule -->
<g id="edge6" class="edge">
<title>PatientModule&#45;&gt;BronchopulmonaryModule</title>
<path fill="none" stroke="black" d="M329,-84.83C329,-101.2 329,-122.8 329,-122.8 329,-122.8 513.53,-122.8 513.53,-122.8"/>
<polygon fill="black" stroke="black" points="513.53,-126.3 523.53,-122.8 513.53,-119.3 513.53,-126.3"/>
</g>
<!-- SchedulingModule -->
<g id="node8" class="node">
<title>SchedulingModule</title>
<polygon fill="#8dd3c7" stroke="black" points="262.04,-84.8 259.04,-88.8 238.04,-88.8 235.04,-84.8 139.96,-84.8 139.96,-48.8 262.04,-48.8 262.04,-84.8"/>
<text text-anchor="middle" x="201" y="-62.6" font-family="Times,serif" font-size="14.00">SchedulingModule</text>
</g>
<!-- SchedulingModule&#45;&gt;BronchopulmonaryModule -->
<g id="edge7" class="edge">
<title>SchedulingModule&#45;&gt;BronchopulmonaryModule</title>
<path fill="none" stroke="black" d="M201,-84.91C201,-104.14 201,-131.8 201,-131.8 201,-131.8 513.67,-131.8 513.67,-131.8"/>
<polygon fill="black" stroke="black" points="513.67,-135.3 523.67,-131.8 513.67,-128.3 513.67,-135.3"/>
</g>
<!-- SharedModule -->
<g id="node9" class="node">
<title>SharedModule</title>
<polygon fill="#8dd3c7" stroke="black" points="122.42,-84.8 119.42,-88.8 98.42,-88.8 95.42,-84.8 23.58,-84.8 23.58,-48.8 122.42,-48.8 122.42,-84.8"/>
<text text-anchor="middle" x="73" y="-62.6" font-family="Times,serif" font-size="14.00">SharedModule</text>
</g>
<!-- SharedModule&#45;&gt;BronchopulmonaryModule -->
<g id="edge8" class="edge">
<title>SharedModule&#45;&gt;BronchopulmonaryModule</title>
<path fill="none" stroke="black" d="M73,-85.09C73,-107.01 73,-140.8 73,-140.8 73,-140.8 513.52,-140.8 513.52,-140.8"/>
<polygon fill="black" stroke="black" points="513.52,-144.3 523.52,-140.8 513.52,-137.3 513.52,-144.3"/>
</g>
</g>
</svg>
