<?xml version="1.0" encoding="UTF-8" standalone="no"?>
<!DOCTYPE svg PUBLIC "-//W3C//DTD SVG 1.1//EN"
 "http://www.w3.org/Graphics/SVG/1.1/DTD/svg11.dtd">
<!-- Generated by graphviz version 2.47.3 (20210619.1520)
 -->
<!-- Title: dependencies Pages: 1 -->
<svg width="521pt" height="247pt"
 viewBox="0.00 0.00 521.00 246.80" xmlns="http://www.w3.org/2000/svg" xmlns:xlink="http://www.w3.org/1999/xlink">
<g id="graph0" class="graph" transform="scale(1 1) rotate(0) translate(4 242.8)">
<title>dependencies</title>
<polygon fill="white" stroke="transparent" points="-4,4 -4,-242.8 517,-242.8 517,4 -4,4"/>
<text text-anchor="middle" x="256.5" y="-8.2" font-family="sans-serif" font-size="14.00">dependencies</text>
<g id="clust1" class="cluster">
<title>cluster_PatientModule</title>
<polygon fill="none" stroke="black" stroke-dasharray="1,5" points="8,-32.8 8,-230.8 505,-230.8 505,-32.8 8,-32.8"/>
</g>
<g id="clust2" class="cluster">
<title>cluster_PatientModule_declarations</title>
<polygon fill="none" stroke="black" points="138,-40.8 138,-92.8 497,-92.8 497,-40.8 138,-40.8"/>
</g>
<g id="clust5" class="cluster">
<title>cluster_PatientModule_imports</title>
<polygon fill="none" stroke="black" points="16,-40.8 16,-92.8 130,-92.8 130,-40.8 16,-40.8"/>
</g>
<g id="clust6" class="cluster">
<title>cluster_PatientModule_exports</title>
<polygon fill="none" stroke="black" points="74,-170.8 74,-222.8 440,-222.8 440,-170.8 74,-170.8"/>
</g>
<!-- PatientProfileComponent -->
<g id="node1" class="node">
<title>PatientProfileComponent</title>
<polygon fill="#ffffb3" stroke="black" points="489.32,-84.8 330.68,-84.8 330.68,-48.8 489.32,-48.8 489.32,-84.8"/>
<text text-anchor="middle" x="410" y="-62.6" font-family="Times,serif" font-size="14.00">PatientProfileComponent</text>
</g>
<!-- PatientModule -->
<g id="node3" class="node">
<title>PatientModule</title>
<polygon fill="#8dd3c7" stroke="black" points="278.43,-149.8 275.43,-153.8 254.43,-153.8 251.43,-149.8 179.57,-149.8 179.57,-113.8 278.43,-113.8 278.43,-149.8"/>
<text text-anchor="middle" x="229" y="-127.6" font-family="Times,serif" font-size="14.00">PatientModule</text>
</g>
<!-- PatientProfileComponent&#45;&gt;PatientModule -->
<g id="edge1" class="edge">
<title>PatientProfileComponent&#45;&gt;PatientModule</title>
<path fill="none" stroke="black" d="M381.38,-84.91C381.38,-104.14 381.38,-131.8 381.38,-131.8 381.38,-131.8 288.47,-131.8 288.47,-131.8"/>
<polygon fill="black" stroke="black" points="288.47,-128.3 278.47,-131.8 288.47,-135.3 288.47,-128.3"/>
</g>
<!-- PatientRegisterComponent -->
<g id="node2" class="node">
<title>PatientRegisterComponent</title>
<polygon fill="#ffffb3" stroke="black" points="312.37,-84.8 145.63,-84.8 145.63,-48.8 312.37,-48.8 312.37,-84.8"/>
<text text-anchor="middle" x="229" y="-62.6" font-family="Times,serif" font-size="14.00">PatientRegisterComponent</text>
</g>
<!-- PatientRegisterComponent&#45;&gt;PatientModule -->
<g id="edge2" class="edge">
<title>PatientRegisterComponent&#45;&gt;PatientModule</title>
<path fill="none" stroke="black" d="M229,-84.91C229,-84.91 229,-103.79 229,-103.79"/>
<polygon fill="black" stroke="black" points="225.5,-103.79 229,-113.79 232.5,-103.79 225.5,-103.79"/>
</g>
<!-- PatientProfileComponent  -->
<g id="node5" class="node">
<title>PatientProfileComponent </title>
<polygon fill="#fb8072" stroke="black" points="431.82,-214.8 270.18,-214.8 270.18,-178.8 431.82,-178.8 431.82,-214.8"/>
<text text-anchor="middle" x="351" y="-192.6" font-family="Times,serif" font-size="14.00">PatientProfileComponent </text>
</g>
<!-- PatientModule&#45;&gt;PatientProfileComponent  -->
<g id="edge4" class="edge">
<title>PatientModule&#45;&gt;PatientProfileComponent </title>
<path fill="none" stroke="black" stroke-dasharray="5,2" d="M274.15,-149.91C274.15,-149.91 274.15,-168.79 274.15,-168.79"/>
<polygon fill="black" stroke="black" points="270.65,-168.79 274.15,-178.79 277.65,-168.79 270.65,-168.79"/>
</g>
<!-- PatientRegisterComponent  -->
<g id="node6" class="node">
<title>PatientRegisterComponent </title>
<polygon fill="#fb8072" stroke="black" points="252.37,-214.8 81.63,-214.8 81.63,-178.8 252.37,-178.8 252.37,-214.8"/>
<text text-anchor="middle" x="167" y="-192.6" font-family="Times,serif" font-size="14.00">PatientRegisterComponent </text>
</g>
<!-- PatientModule&#45;&gt;PatientRegisterComponent  -->
<g id="edge5" class="edge">
<title>PatientModule&#45;&gt;PatientRegisterComponent </title>
<path fill="none" stroke="black" stroke-dasharray="5,2" d="M215.98,-149.91C215.98,-149.91 215.98,-168.79 215.98,-168.79"/>
<polygon fill="black" stroke="black" points="212.48,-168.79 215.98,-178.79 219.48,-168.79 212.48,-168.79"/>
</g>
<!-- SharedModule -->
<g id="node4" class="node">
<title>SharedModule</title>
<polygon fill="#8dd3c7" stroke="black" points="122.42,-84.8 119.42,-88.8 98.42,-88.8 95.42,-84.8 23.58,-84.8 23.58,-48.8 122.42,-48.8 122.42,-84.8"/>
<text text-anchor="middle" x="73" y="-62.6" font-family="Times,serif" font-size="14.00">SharedModule</text>
</g>
<!-- SharedModule&#45;&gt;PatientModule -->
<g id="edge3" class="edge">
<title>SharedModule&#45;&gt;PatientModule</title>
<path fill="none" stroke="black" d="M102.01,-84.91C102.01,-104.14 102.01,-131.8 102.01,-131.8 102.01,-131.8 169.54,-131.8 169.54,-131.8"/>
<polygon fill="black" stroke="black" points="169.54,-135.3 179.54,-131.8 169.54,-128.3 169.54,-135.3"/>
</g>
</g>
</svg>
