<?xml version="1.0" encoding="UTF-8" standalone="no"?>
<!DOCTYPE svg PUBLIC "-//W3C//DTD SVG 1.1//EN"
 "http://www.w3.org/Graphics/SVG/1.1/DTD/svg11.dtd">
<!-- Generated by graphviz version 2.47.3 (20210619.1520)
 -->
<!-- Title: dependencies Pages: 1 -->
<svg width="1886pt" height="247pt"
 viewBox="0.00 0.00 1886.00 246.80" xmlns="http://www.w3.org/2000/svg" xmlns:xlink="http://www.w3.org/1999/xlink">
<g id="graph0" class="graph" transform="scale(1 1) rotate(0) translate(4 242.8)">
<title>dependencies</title>
<polygon fill="white" stroke="transparent" points="-4,4 -4,-242.8 1882,-242.8 1882,4 -4,4"/>
<text text-anchor="middle" x="939" y="-8.2" font-family="sans-serif" font-size="14.00">dependencies</text>
<g id="clust1" class="cluster">
<title>cluster_AppModule</title>
<polygon fill="none" stroke="black" stroke-dasharray="1,5" points="8,-32.8 8,-230.8 1870,-230.8 1870,-32.8 8,-32.8"/>
</g>
<g id="clust14" class="cluster">
<title>cluster_AppModule_providers</title>
<polygon fill="none" stroke="black" points="1535,-40.8 1535,-92.8 1862,-92.8 1862,-40.8 1535,-40.8"/>
</g>
<g id="clust2" class="cluster">
<title>cluster_AppModule_declarations</title>
<polygon fill="none" stroke="black" points="285,-40.8 285,-92.8 1527,-92.8 1527,-40.8 285,-40.8"/>
</g>
<g id="clust13" class="cluster">
<title>cluster_AppModule_bootstrap</title>
<polygon fill="none" stroke="black" points="887,-170.8 887,-222.8 1011,-222.8 1011,-170.8 887,-170.8"/>
</g>
<g id="clust11" class="cluster">
<title>cluster_AppModule_imports</title>
<polygon fill="none" stroke="black" points="16,-40.8 16,-92.8 277,-92.8 277,-40.8 16,-40.8"/>
</g>
<!-- AppComponent -->
<g id="node1" class="node">
<title>AppComponent</title>
<polygon fill="#ffffb3" stroke="black" points="1518.94,-84.8 1413.06,-84.8 1413.06,-48.8 1518.94,-48.8 1518.94,-84.8"/>
<text text-anchor="middle" x="1466" y="-62.6" font-family="Times,serif" font-size="14.00">AppComponent</text>
</g>
<!-- AppModule -->
<g id="node9" class="node">
<title>AppModule</title>
<polygon fill="#8dd3c7" stroke="black" points="990.66,-149.8 987.66,-153.8 966.66,-153.8 963.66,-149.8 907.34,-149.8 907.34,-113.8 990.66,-113.8 990.66,-149.8"/>
<text text-anchor="middle" x="949" y="-127.6" font-family="Times,serif" font-size="14.00">AppModule</text>
</g>
<!-- AppComponent&#45;&gt;AppModule -->
<g id="edge1" class="edge">
<title>AppComponent&#45;&gt;AppModule</title>
<path fill="none" stroke="black" d="M1466,-84.91C1466,-104.14 1466,-131.8 1466,-131.8 1466,-131.8 1000.87,-131.8 1000.87,-131.8"/>
<polygon fill="black" stroke="black" points="1000.87,-128.3 990.87,-131.8 1000.87,-135.3 1000.87,-128.3"/>
</g>
<!-- FooterComponent -->
<g id="node2" class="node">
<title>FooterComponent</title>
<polygon fill="#ffffb3" stroke="black" points="1394.88,-84.8 1277.12,-84.8 1277.12,-48.8 1394.88,-48.8 1394.88,-84.8"/>
<text text-anchor="middle" x="1336" y="-62.6" font-family="Times,serif" font-size="14.00">FooterComponent</text>
</g>
<!-- FooterComponent&#45;&gt;AppModule -->
<g id="edge2" class="edge">
<title>FooterComponent&#45;&gt;AppModule</title>
<path fill="none" stroke="black" d="M1336,-84.82C1336,-102.17 1336,-125.8 1336,-125.8 1336,-125.8 1000.78,-125.8 1000.78,-125.8"/>
<polygon fill="black" stroke="black" points="1000.78,-122.3 990.78,-125.8 1000.78,-129.3 1000.78,-122.3"/>
</g>
<!-- HeaderComponent -->
<g id="node3" class="node">
<title>HeaderComponent</title>
<polygon fill="#ffffb3" stroke="black" points="1258.74,-84.8 1137.26,-84.8 1137.26,-48.8 1258.74,-48.8 1258.74,-84.8"/>
<text text-anchor="middle" x="1198" y="-62.6" font-family="Times,serif" font-size="14.00">HeaderComponent</text>
</g>
<!-- HeaderComponent&#45;&gt;AppModule -->
<g id="edge3" class="edge">
<title>HeaderComponent&#45;&gt;AppModule</title>
<path fill="none" stroke="black" d="M1198,-85.04C1198,-100.37 1198,-119.8 1198,-119.8 1198,-119.8 1000.68,-119.8 1000.68,-119.8"/>
<polygon fill="black" stroke="black" points="1000.68,-116.3 990.68,-119.8 1000.68,-123.3 1000.68,-116.3"/>
</g>
<!-- LoggedInLayoutComponent -->
<g id="node4" class="node">
<title>LoggedInLayoutComponent</title>
<polygon fill="#ffffb3" stroke="black" points="1118.92,-84.8 943.08,-84.8 943.08,-48.8 1118.92,-48.8 1118.92,-84.8"/>
<text text-anchor="middle" x="1031" y="-62.6" font-family="Times,serif" font-size="14.00">LoggedInLayoutComponent</text>
</g>
<!-- LoggedInLayoutComponent&#45;&gt;AppModule -->
<g id="edge4" class="edge">
<title>LoggedInLayoutComponent&#45;&gt;AppModule</title>
<path fill="none" stroke="black" d="M967.06,-84.91C967.06,-84.91 967.06,-103.79 967.06,-103.79"/>
<polygon fill="black" stroke="black" points="963.56,-103.79 967.06,-113.79 970.56,-103.79 963.56,-103.79"/>
</g>
<!-- LoginComponent -->
<g id="node5" class="node">
<title>LoginComponent</title>
<polygon fill="#ffffb3" stroke="black" points="925.28,-84.8 810.72,-84.8 810.72,-48.8 925.28,-48.8 925.28,-84.8"/>
<text text-anchor="middle" x="868" y="-62.6" font-family="Times,serif" font-size="14.00">LoginComponent</text>
</g>
<!-- LoginComponent&#45;&gt;AppModule -->
<g id="edge5" class="edge">
<title>LoginComponent&#45;&gt;AppModule</title>
<path fill="none" stroke="black" d="M916.28,-84.91C916.28,-84.91 916.28,-103.79 916.28,-103.79"/>
<polygon fill="black" stroke="black" points="912.78,-103.79 916.28,-113.79 919.78,-103.79 912.78,-103.79"/>
</g>
<!-- LoginLayoutComponent -->
<g id="node6" class="node">
<title>LoginLayoutComponent</title>
<polygon fill="#ffffb3" stroke="black" points="792.43,-84.8 637.57,-84.8 637.57,-48.8 792.43,-48.8 792.43,-84.8"/>
<text text-anchor="middle" x="715" y="-62.6" font-family="Times,serif" font-size="14.00">LoginLayoutComponent</text>
</g>
<!-- LoginLayoutComponent&#45;&gt;AppModule -->
<g id="edge6" class="edge">
<title>LoginLayoutComponent&#45;&gt;AppModule</title>
<path fill="none" stroke="black" d="M715,-85.04C715,-100.37 715,-119.8 715,-119.8 715,-119.8 897.17,-119.8 897.17,-119.8"/>
<polygon fill="black" stroke="black" points="897.17,-123.3 907.17,-119.8 897.17,-116.3 897.17,-123.3"/>
</g>
<!-- MainMenuComponent -->
<g id="node7" class="node">
<title>MainMenuComponent</title>
<polygon fill="#ffffb3" stroke="black" points="619.54,-84.8 476.46,-84.8 476.46,-48.8 619.54,-48.8 619.54,-84.8"/>
<text text-anchor="middle" x="548" y="-62.6" font-family="Times,serif" font-size="14.00">MainMenuComponent</text>
</g>
<!-- MainMenuComponent&#45;&gt;AppModule -->
<g id="edge7" class="edge">
<title>MainMenuComponent&#45;&gt;AppModule</title>
<path fill="none" stroke="black" d="M548,-84.82C548,-102.17 548,-125.8 548,-125.8 548,-125.8 897.22,-125.8 897.22,-125.8"/>
<polygon fill="black" stroke="black" points="897.22,-129.3 907.22,-125.8 897.22,-122.3 897.22,-129.3"/>
</g>
<!-- PageNotFoundComponent -->
<g id="node8" class="node">
<title>PageNotFoundComponent</title>
<polygon fill="#ffffb3" stroke="black" points="458.82,-84.8 293.18,-84.8 293.18,-48.8 458.82,-48.8 458.82,-84.8"/>
<text text-anchor="middle" x="376" y="-62.6" font-family="Times,serif" font-size="14.00">PageNotFoundComponent</text>
</g>
<!-- PageNotFoundComponent&#45;&gt;AppModule -->
<g id="edge8" class="edge">
<title>PageNotFoundComponent&#45;&gt;AppModule</title>
<path fill="none" stroke="black" d="M376,-84.91C376,-104.14 376,-131.8 376,-131.8 376,-131.8 897.33,-131.8 897.33,-131.8"/>
<polygon fill="black" stroke="black" points="897.33,-135.3 907.33,-131.8 897.33,-128.3 897.33,-135.3"/>
</g>
<!-- AppComponent  -->
<g id="node12" class="node">
<title>AppComponent </title>
<polygon fill="#80b1d3" stroke="black" points="1003.44,-214.8 894.56,-214.8 894.56,-178.8 1003.44,-178.8 1003.44,-214.8"/>
<text text-anchor="middle" x="949" y="-192.6" font-family="Times,serif" font-size="14.00">AppComponent </text>
</g>
<!-- AppModule&#45;&gt;AppComponent  -->
<g id="edge11" class="edge">
<title>AppModule&#45;&gt;AppComponent </title>
<path fill="none" stroke="black" stroke-dasharray="1,5" d="M949,-149.91C949,-149.91 949,-168.79 949,-168.79"/>
<polygon fill="black" stroke="black" points="945.5,-168.79 949,-178.79 952.5,-168.79 945.5,-168.79"/>
</g>
<!-- AppRoutingModule -->
<g id="node10" class="node">
<title>AppRoutingModule</title>
<polygon fill="#8dd3c7" stroke="black" points="269.27,-84.8 266.27,-88.8 245.27,-88.8 242.27,-84.8 140.73,-84.8 140.73,-48.8 269.27,-48.8 269.27,-84.8"/>
<text text-anchor="middle" x="205" y="-62.6" font-family="Times,serif" font-size="14.00">AppRoutingModule</text>
</g>
<!-- AppRoutingModule&#45;&gt;AppModule -->
<g id="edge9" class="edge">
<title>AppRoutingModule&#45;&gt;AppModule</title>
<path fill="none" stroke="black" d="M205,-85.08C205,-106.12 205,-137.8 205,-137.8 205,-137.8 897.14,-137.8 897.14,-137.8"/>
<polygon fill="black" stroke="black" points="897.14,-141.3 907.14,-137.8 897.14,-134.3 897.14,-141.3"/>
</g>
<!-- SharedModule -->
<g id="node11" class="node">
<title>SharedModule</title>
<polygon fill="#8dd3c7" stroke="black" points="122.42,-84.8 119.42,-88.8 98.42,-88.8 95.42,-84.8 23.58,-84.8 23.58,-48.8 122.42,-48.8 122.42,-84.8"/>
<text text-anchor="middle" x="73" y="-62.6" font-family="Times,serif" font-size="14.00">SharedModule</text>
</g>
<!-- SharedModule&#45;&gt;AppModule -->
<g id="edge10" class="edge">
<title>SharedModule&#45;&gt;AppModule</title>
<path fill="none" stroke="black" d="M73,-85.05C73,-107.82 73,-143.8 73,-143.8 73,-143.8 897.34,-143.8 897.34,-143.8"/>
<polygon fill="black" stroke="black" points="897.34,-147.3 907.34,-143.8 897.34,-140.3 897.34,-147.3"/>
</g>
<!-- AuthInterceptor -->
<g id="node13" class="node">
<title>AuthInterceptor</title>
<ellipse fill="#fdb462" stroke="black" cx="1781" cy="-66.8" rx="72.91" ry="18"/>
<text text-anchor="middle" x="1781" y="-62.6" font-family="Times,serif" font-size="14.00">AuthInterceptor</text>
</g>
<!-- AuthInterceptor&#45;&gt;AppModule -->
<g id="edge12" class="edge">
<title>AuthInterceptor&#45;&gt;AppModule</title>
<path fill="none" stroke="black" d="M1781,-85.05C1781,-107.82 1781,-143.8 1781,-143.8 1781,-143.8 1000.83,-143.8 1000.83,-143.8"/>
<polygon fill="black" stroke="black" points="1000.83,-140.3 990.83,-143.8 1000.83,-147.3 1000.83,-140.3"/>
</g>
<!-- ErrorInterceptor -->
<g id="node14" class="node">
<title>ErrorInterceptor</title>
<ellipse fill="#fdb462" stroke="black" cx="1617" cy="-66.8" rx="73.53" ry="18"/>
<text text-anchor="middle" x="1617" y="-62.6" font-family="Times,serif" font-size="14.00">ErrorInterceptor</text>
</g>
<!-- ErrorInterceptor&#45;&gt;AppModule -->
<g id="edge13" class="edge">
<title>ErrorInterceptor&#45;&gt;AppModule</title>
<path fill="none" stroke="black" d="M1617,-85.08C1617,-106.12 1617,-137.8 1617,-137.8 1617,-137.8 1000.79,-137.8 1000.79,-137.8"/>
<polygon fill="black" stroke="black" points="1000.79,-134.3 990.79,-137.8 1000.79,-141.3 1000.79,-134.3"/>
</g>
</g>
</svg>
