<?xml version="1.0" encoding="UTF-8" standalone="no"?>
<!DOCTYPE svg PUBLIC "-//W3C//DTD SVG 1.1//EN"
 "http://www.w3.org/Graphics/SVG/1.1/DTD/svg11.dtd">
<!-- Generated by graphviz version 2.47.3 (20210619.1520)
 -->
<!-- Title: dependencies Pages: 1 -->
<svg width="1344pt" height="174pt"
 viewBox="0.00 0.00 1344.00 173.80" xmlns="http://www.w3.org/2000/svg" xmlns:xlink="http://www.w3.org/1999/xlink">
<g id="graph0" class="graph" transform="scale(1 1) rotate(0) translate(4 169.8)">
<title>dependencies</title>
<polygon fill="white" stroke="transparent" points="-4,4 -4,-169.8 1340,-169.8 1340,4 -4,4"/>
<text text-anchor="middle" x="668" y="-8.2" font-family="sans-serif" font-size="14.00">dependencies</text>
<g id="clust1" class="cluster">
<title>cluster_ColonRectalModule</title>
<polygon fill="none" stroke="black" stroke-dasharray="1,5" points="8,-32.8 8,-157.8 1328,-157.8 1328,-32.8 8,-32.8"/>
</g>
<g id="clust2" class="cluster">
<title>cluster_ColonRectalModule_declarations</title>
<polygon fill="none" stroke="black" points="587,-40.8 587,-92.8 1320,-92.8 1320,-40.8 587,-40.8"/>
</g>
<g id="clust7" class="cluster">
<title>cluster_ColonRectalModule_imports</title>
<polygon fill="none" stroke="black" points="16,-40.8 16,-92.8 579,-92.8 579,-40.8 16,-40.8"/>
</g>
<!-- CCRMainComponent -->
<g id="node1" class="node">
<title>CCRMainComponent</title>
<polygon fill="#ffffb3" stroke="black" points="1312.39,-84.8 1173.61,-84.8 1173.61,-48.8 1312.39,-48.8 1312.39,-84.8"/>
<text text-anchor="middle" x="1243" y="-62.6" font-family="Times,serif" font-size="14.00">CCRMainComponent</text>
</g>
<!-- ColonRectalModule -->
<g id="node5" class="node">
<title>ColonRectalModule</title>
<polygon fill="#8dd3c7" stroke="black" points="655.54,-149.8 652.54,-153.8 631.54,-153.8 628.54,-149.8 526.46,-149.8 526.46,-113.8 655.54,-113.8 655.54,-149.8"/>
<text text-anchor="middle" x="591" y="-127.6" font-family="Times,serif" font-size="14.00">ColonRectalModule</text>
</g>
<!-- CCRMainComponent&#45;&gt;ColonRectalModule -->
<g id="edge1" class="edge">
<title>CCRMainComponent&#45;&gt;ColonRectalModule</title>
<path fill="none" stroke="black" d="M1243,-85.09C1243,-107.01 1243,-140.8 1243,-140.8 1243,-140.8 665.6,-140.8 665.6,-140.8"/>
<polygon fill="black" stroke="black" points="665.6,-137.3 655.6,-140.8 665.6,-144.3 665.6,-137.3"/>
</g>
<!-- CCRPatientComponent -->
<g id="node2" class="node">
<title>CCRPatientComponent</title>
<polygon fill="#ffffb3" stroke="black" points="1155.23,-84.8 1006.77,-84.8 1006.77,-48.8 1155.23,-48.8 1155.23,-84.8"/>
<text text-anchor="middle" x="1081" y="-62.6" font-family="Times,serif" font-size="14.00">CCRPatientComponent</text>
</g>
<!-- CCRPatientComponent&#45;&gt;ColonRectalModule -->
<g id="edge2" class="edge">
<title>CCRPatientComponent&#45;&gt;ColonRectalModule</title>
<path fill="none" stroke="black" d="M1081,-84.91C1081,-104.14 1081,-131.8 1081,-131.8 1081,-131.8 665.56,-131.8 665.56,-131.8"/>
<polygon fill="black" stroke="black" points="665.56,-128.3 655.56,-131.8 665.56,-135.3 665.56,-128.3"/>
</g>
<!-- CCRPatientListComponent -->
<g id="node3" class="node">
<title>CCRPatientListComponent</title>
<polygon fill="#ffffb3" stroke="black" points="989,-84.8 819,-84.8 819,-48.8 989,-48.8 989,-84.8"/>
<text text-anchor="middle" x="904" y="-62.6" font-family="Times,serif" font-size="14.00">CCRPatientListComponent</text>
</g>
<!-- CCRPatientListComponent&#45;&gt;ColonRectalModule -->
<g id="edge3" class="edge">
<title>CCRPatientListComponent&#45;&gt;ColonRectalModule</title>
<path fill="none" stroke="black" d="M904,-84.83C904,-101.2 904,-122.8 904,-122.8 904,-122.8 665.85,-122.8 665.85,-122.8"/>
<polygon fill="black" stroke="black" points="665.85,-119.3 655.85,-122.8 665.85,-126.3 665.85,-119.3"/>
</g>
<!-- ColonRectalSummaryComponent -->
<g id="node4" class="node">
<title>ColonRectalSummaryComponent</title>
<polygon fill="#ffffb3" stroke="black" points="800.76,-84.8 595.24,-84.8 595.24,-48.8 800.76,-48.8 800.76,-84.8"/>
<text text-anchor="middle" x="698" y="-62.6" font-family="Times,serif" font-size="14.00">ColonRectalSummaryComponent</text>
</g>
<!-- ColonRectalSummaryComponent&#45;&gt;ColonRectalModule -->
<g id="edge4" class="edge">
<title>ColonRectalSummaryComponent&#45;&gt;ColonRectalModule</title>
<path fill="none" stroke="black" d="M625.44,-84.91C625.44,-84.91 625.44,-103.79 625.44,-103.79"/>
<polygon fill="black" stroke="black" points="621.94,-103.79 625.44,-113.79 628.94,-103.79 621.94,-103.79"/>
</g>
<!-- ColonRectalRoutingModule -->
<g id="node6" class="node">
<title>ColonRectalRoutingModule</title>
<polygon fill="#8dd3c7" stroke="black" points="571.16,-84.8 568.16,-88.8 547.16,-88.8 544.16,-84.8 396.84,-84.8 396.84,-48.8 571.16,-48.8 571.16,-84.8"/>
<text text-anchor="middle" x="484" y="-62.6" font-family="Times,serif" font-size="14.00">ColonRectalRoutingModule</text>
</g>
<!-- ColonRectalRoutingModule&#45;&gt;ColonRectalModule -->
<g id="edge5" class="edge">
<title>ColonRectalRoutingModule&#45;&gt;ColonRectalModule</title>
<path fill="none" stroke="black" d="M548.78,-84.91C548.78,-84.91 548.78,-103.79 548.78,-103.79"/>
<polygon fill="black" stroke="black" points="545.28,-103.79 548.78,-113.79 552.28,-103.79 545.28,-103.79"/>
</g>
<!-- PatientModule -->
<g id="node7" class="node">
<title>PatientModule</title>
<polygon fill="#8dd3c7" stroke="black" points="378.43,-84.8 375.43,-88.8 354.43,-88.8 351.43,-84.8 279.57,-84.8 279.57,-48.8 378.43,-48.8 378.43,-84.8"/>
<text text-anchor="middle" x="329" y="-62.6" font-family="Times,serif" font-size="14.00">PatientModule</text>
</g>
<!-- PatientModule&#45;&gt;ColonRectalModule -->
<g id="edge6" class="edge">
<title>PatientModule&#45;&gt;ColonRectalModule</title>
<path fill="none" stroke="black" d="M329,-84.83C329,-101.2 329,-122.8 329,-122.8 329,-122.8 516.24,-122.8 516.24,-122.8"/>
<polygon fill="black" stroke="black" points="516.24,-126.3 526.24,-122.8 516.24,-119.3 516.24,-126.3"/>
</g>
<!-- SchedulingModule -->
<g id="node8" class="node">
<title>SchedulingModule</title>
<polygon fill="#8dd3c7" stroke="black" points="262.04,-84.8 259.04,-88.8 238.04,-88.8 235.04,-84.8 139.96,-84.8 139.96,-48.8 262.04,-48.8 262.04,-84.8"/>
<text text-anchor="middle" x="201" y="-62.6" font-family="Times,serif" font-size="14.00">SchedulingModule</text>
</g>
<!-- SchedulingModule&#45;&gt;ColonRectalModule -->
<g id="edge7" class="edge">
<title>SchedulingModule&#45;&gt;ColonRectalModule</title>
<path fill="none" stroke="black" d="M201,-84.91C201,-104.14 201,-131.8 201,-131.8 201,-131.8 516.16,-131.8 516.16,-131.8"/>
<polygon fill="black" stroke="black" points="516.16,-135.3 526.16,-131.8 516.16,-128.3 516.16,-135.3"/>
</g>
<!-- SharedModule -->
<g id="node9" class="node">
<title>SharedModule</title>
<polygon fill="#8dd3c7" stroke="black" points="122.42,-84.8 119.42,-88.8 98.42,-88.8 95.42,-84.8 23.58,-84.8 23.58,-48.8 122.42,-48.8 122.42,-84.8"/>
<text text-anchor="middle" x="73" y="-62.6" font-family="Times,serif" font-size="14.00">SharedModule</text>
</g>
<!-- SharedModule&#45;&gt;ColonRectalModule -->
<g id="edge8" class="edge">
<title>SharedModule&#45;&gt;ColonRectalModule</title>
<path fill="none" stroke="black" d="M73,-85.09C73,-107.01 73,-140.8 73,-140.8 73,-140.8 516.44,-140.8 516.44,-140.8"/>
<polygon fill="black" stroke="black" points="516.44,-144.3 526.44,-140.8 516.44,-137.3 516.44,-144.3"/>
</g>
</g>
</svg>
