<?xml version="1.0" encoding="UTF-8" standalone="no"?>
<!DOCTYPE svg PUBLIC "-//W3C//DTD SVG 1.1//EN"
 "http://www.w3.org/Graphics/SVG/1.1/DTD/svg11.dtd">
<!-- Generated by graphviz version 2.47.3 (20210619.1520)
 -->
<!-- Title: dependencies Pages: 1 -->
<svg width="520pt" height="174pt"
 viewBox="0.00 0.00 520.00 173.80" xmlns="http://www.w3.org/2000/svg" xmlns:xlink="http://www.w3.org/1999/xlink">
<g id="graph0" class="graph" transform="scale(1 1) rotate(0) translate(4 169.8)">
<title>dependencies</title>
<polygon fill="white" stroke="transparent" points="-4,4 -4,-169.8 516,-169.8 516,4 -4,4"/>
<text text-anchor="middle" x="256" y="-8.2" font-family="sans-serif" font-size="14.00">dependencies</text>
<g id="clust1" class="cluster">
<title>cluster_UsersManagementModule</title>
<polygon fill="none" stroke="black" stroke-dasharray="1,5" points="8,-32.8 8,-157.8 504,-157.8 504,-32.8 8,-32.8"/>
</g>
<g id="clust2" class="cluster">
<title>cluster_UsersManagementModule_declarations</title>
<polygon fill="none" stroke="black" points="366,-40.8 366,-92.8 496,-92.8 496,-40.8 366,-40.8"/>
</g>
<g id="clust4" class="cluster">
<title>cluster_UsersManagementModule_imports</title>
<polygon fill="none" stroke="black" points="16,-40.8 16,-92.8 358,-92.8 358,-40.8 16,-40.8"/>
</g>
<!-- UsersComponent -->
<g id="node1" class="node">
<title>UsersComponent</title>
<polygon fill="#ffffb3" stroke="black" points="487.7,-84.8 374.3,-84.8 374.3,-48.8 487.7,-48.8 487.7,-84.8"/>
<text text-anchor="middle" x="431" y="-62.6" font-family="Times,serif" font-size="14.00">UsersComponent</text>
</g>
<!-- UsersManagementModule -->
<g id="node2" class="node">
<title>UsersManagementModule</title>
<polygon fill="#8dd3c7" stroke="black" points="383.01,-149.8 380.01,-153.8 359.01,-153.8 356.01,-149.8 218.99,-149.8 218.99,-113.8 383.01,-113.8 383.01,-149.8"/>
<text text-anchor="middle" x="301" y="-127.6" font-family="Times,serif" font-size="14.00">UsersManagementModule</text>
</g>
<!-- UsersComponent&#45;&gt;UsersManagementModule -->
<g id="edge1" class="edge">
<title>UsersComponent&#45;&gt;UsersManagementModule</title>
<path fill="none" stroke="black" d="M378.83,-84.91C378.83,-84.91 378.83,-103.79 378.83,-103.79"/>
<polygon fill="black" stroke="black" points="375.33,-103.79 378.83,-113.79 382.33,-103.79 375.33,-103.79"/>
</g>
<!-- SharedModule -->
<g id="node3" class="node">
<title>SharedModule</title>
<polygon fill="#8dd3c7" stroke="black" points="350.42,-84.8 347.42,-88.8 326.42,-88.8 323.42,-84.8 251.58,-84.8 251.58,-48.8 350.42,-48.8 350.42,-84.8"/>
<text text-anchor="middle" x="301" y="-62.6" font-family="Times,serif" font-size="14.00">SharedModule</text>
</g>
<!-- SharedModule&#45;&gt;UsersManagementModule -->
<g id="edge2" class="edge">
<title>SharedModule&#45;&gt;UsersManagementModule</title>
<path fill="none" stroke="black" d="M301,-84.91C301,-84.91 301,-103.79 301,-103.79"/>
<polygon fill="black" stroke="black" points="297.5,-103.79 301,-113.79 304.5,-103.79 297.5,-103.79"/>
</g>
<!-- UsersManagementRoutingModule -->
<g id="node4" class="node">
<title>UsersManagementRoutingModule</title>
<polygon fill="#8dd3c7" stroke="black" points="233.62,-84.8 230.62,-88.8 209.62,-88.8 206.62,-84.8 24.38,-84.8 24.38,-48.8 233.62,-48.8 233.62,-84.8"/>
<text text-anchor="middle" x="129" y="-62.6" font-family="Times,serif" font-size="14.00">UsersManagementRoutingModule</text>
</g>
<!-- UsersManagementRoutingModule&#45;&gt;UsersManagementModule -->
<g id="edge3" class="edge">
<title>UsersManagementRoutingModule&#45;&gt;UsersManagementModule</title>
<path fill="none" stroke="black" d="M226.28,-84.91C226.28,-84.91 226.28,-103.79 226.28,-103.79"/>
<polygon fill="black" stroke="black" points="222.78,-103.79 226.28,-113.79 229.78,-103.79 222.78,-103.79"/>
</g>
</g>
</svg>
